<svg width="16" height="16" viewBox="0 0 16 16" fill="none" xmlns="http://www.w3.org/2000/svg">
<g clip-path="url(#clip0_11_327)">
<path d="M8.21101 2.04701C8.14492 2.01624 8.07291 2.00031 8.00001 2.00031C7.92711 2.00031 7.8551 2.01624 7.78901 2.04701L0.289011 5.54701C0.200693 5.58823 0.126349 5.65437 0.0751219 5.73728C0.0238946 5.8202 -0.00198212 5.91628 0.000674054 6.01371C0.00333023 6.11114 0.0344035 6.20567 0.0900724 6.28567C0.145741 6.36567 0.223578 6.42766 0.314011 6.46401L7.81401 9.46401C7.9334 9.51185 8.06663 9.51185 8.18601 9.46401L14 7.14001V13C13.7348 13 13.4804 13.1054 13.2929 13.2929C13.1054 13.4804 13 13.7348 13 14V16H16V14C16 13.7348 15.8947 13.4804 15.7071 13.2929C15.5196 13.1054 15.2652 13 15 13V6.73901L15.686 6.46401C15.7764 6.42766 15.8543 6.36567 15.9099 6.28567C15.9656 6.20567 15.9967 6.11114 15.9993 6.01371C16.002 5.91628 15.9761 5.8202 15.9249 5.73728C15.8737 5.65437 15.7993 5.58823 15.711 5.54701L8.21101 2.04701Z" fill="black"/>
<path d="M4.17599 9.03198C4.1116 9.00772 4.04291 8.99702 3.9742 9.00053C3.90548 9.00404 3.83824 9.0217 3.77666 9.05239C3.71509 9.08309 3.66051 9.12616 3.61634 9.17891C3.57218 9.23166 3.53938 9.29296 3.51999 9.35898L3.01999 11.059C2.98497 11.1783 2.99568 11.3064 3.05004 11.4183C3.10441 11.5302 3.19851 11.6178 3.31399 11.664L7.81399 13.464C7.93337 13.5118 8.0666 13.5118 8.18599 13.464L12.686 11.664C12.8015 11.6178 12.8956 11.5302 12.9499 11.4183C13.0043 11.3064 13.015 11.1783 12.98 11.059L12.48 9.35898C12.4606 9.29296 12.4278 9.23166 12.3836 9.17891C12.3395 9.12616 12.2849 9.08309 12.2233 9.05239C12.1617 9.0217 12.0945 9.00404 12.0258 9.00053C11.9571 8.99702 11.8884 9.00772 11.824 9.03198L7.99999 10.466L4.17599 9.03198Z" fill="black"/>
</g>
<defs>
<clipPath id="clip0_11_327">
<rect width="16" height="16" fill="white"/>
</clipPath>
</defs>
</svg>
