<svg width="16" height="16" viewBox="0 0 16 16" fill="none" xmlns="http://www.w3.org/2000/svg">
<g clip-path="url(#clip0_13_1049)">
<path fill-rule="evenodd" clip-rule="evenodd" d="M11.5 2C11.303 2 11.108 2.0388 10.926 2.11418C10.744 2.18957 10.5786 2.30006 10.4393 2.43934C10.3001 2.57863 10.1896 2.74399 10.1142 2.92598C10.0388 3.10797 10 3.30302 10 3.5C10 3.69699 10.0388 3.89204 10.1142 4.07403C10.1896 4.25602 10.3001 4.42138 10.4393 4.56066C10.5786 4.69995 10.744 4.81044 10.926 4.88582C11.108 4.96121 11.303 5 11.5 5C11.8978 5 12.2794 4.84197 12.5607 4.56066C12.842 4.27936 13 3.89783 13 3.5C13 3.10218 12.842 2.72065 12.5607 2.43934C12.2794 2.15804 11.8978 2 11.5 2ZM9.05 3C9.16476 2.43486 9.47136 1.92677 9.91787 1.56181C10.3644 1.19686 10.9233 0.997498 11.5 0.997498C12.0767 0.997498 12.6356 1.19686 13.0821 1.56181C13.5286 1.92677 13.8352 2.43486 13.95 3H16V4H13.95C13.8352 4.56515 13.5286 5.07324 13.0821 5.43819C12.6356 5.80314 12.0767 6.00251 11.5 6.00251C10.9233 6.00251 10.3644 5.80314 9.91787 5.43819C9.47136 5.07324 9.16476 4.56515 9.05 4H0V3H9.05ZM4.5 7C4.10218 7 3.72064 7.15804 3.43934 7.43934C3.15804 7.72065 3 8.10218 3 8.5C3 8.89783 3.15804 9.27936 3.43934 9.56066C3.72064 9.84197 4.10218 10 4.5 10C4.89782 10 5.27936 9.84197 5.56066 9.56066C5.84196 9.27936 6 8.89783 6 8.5C6 8.10218 5.84196 7.72065 5.56066 7.43934C5.27936 7.15804 4.89782 7 4.5 7ZM2.05 8C2.16476 7.43486 2.47136 6.92677 2.91787 6.56181C3.36438 6.19686 3.92332 5.9975 4.5 5.9975C5.07668 5.9975 5.63562 6.19686 6.08213 6.56181C6.52864 6.92677 6.83524 7.43486 6.95 8H16V9H6.95C6.83524 9.56515 6.52864 10.0732 6.08213 10.4382C5.63562 10.8031 5.07668 11.0025 4.5 11.0025C3.92332 11.0025 3.36438 10.8031 2.91787 10.4382C2.47136 10.0732 2.16476 9.56515 2.05 9H0V8H2.05ZM11.5 12C11.1022 12 10.7206 12.158 10.4393 12.4393C10.158 12.7206 10 13.1022 10 13.5C10 13.8978 10.158 14.2794 10.4393 14.5607C10.7206 14.842 11.1022 15 11.5 15C11.8978 15 12.2794 14.842 12.5607 14.5607C12.842 14.2794 13 13.8978 13 13.5C13 13.1022 12.842 12.7206 12.5607 12.4393C12.2794 12.158 11.8978 12 11.5 12ZM9.05 13C9.16476 12.4349 9.47136 11.9268 9.91787 11.5618C10.3644 11.1969 10.9233 10.9975 11.5 10.9975C12.0767 10.9975 12.6356 11.1969 13.0821 11.5618C13.5286 11.9268 13.8352 12.4349 13.95 13H16V14H13.95C13.8352 14.5651 13.5286 15.0732 13.0821 15.4382C12.6356 15.8031 12.0767 16.0025 11.5 16.0025C10.9233 16.0025 10.3644 15.8031 9.91787 15.4382C9.47136 15.0732 9.16476 14.5651 9.05 14H0V13H9.05Z" fill="black"/>
</g>
<defs>
<clipPath id="clip0_13_1049">
<rect width="16" height="16" fill="white"/>
</clipPath>
</defs>
</svg>
