<svg width="16" height="16" viewBox="0 0 16 16" fill="none" xmlns="http://www.w3.org/2000/svg">
<g clip-path="url(#clip0_73_2)">
<path d="M8 15C6.14348 15 4.36301 14.2625 3.05025 12.9497C1.7375 11.637 1 9.85652 1 8C1 6.14348 1.7375 4.36301 3.05025 3.05025C4.36301 1.7375 6.14348 1 8 1C9.85652 1 11.637 1.7375 12.9497 3.05025C14.2625 4.36301 15 6.14348 15 8C15 9.85652 14.2625 11.637 12.9497 12.9497C11.637 14.2625 9.85652 15 8 15ZM8 16C10.1217 16 12.1566 15.1571 13.6569 13.6569C15.1571 12.1566 16 10.1217 16 8C16 5.87827 15.1571 3.84344 13.6569 2.34315C12.1566 0.842855 10.1217 0 8 0C5.87827 0 3.84344 0.842855 2.34315 2.34315C0.842855 3.84344 0 5.87827 0 8C0 10.1217 0.842855 12.1566 2.34315 13.6569C3.84344 15.1571 5.87827 16 8 16Z" fill="white"/>
<path d="M4.64599 4.64598C4.69244 4.59941 4.74761 4.56247 4.80836 4.53727C4.8691 4.51206 4.93423 4.49908 4.99999 4.49908C5.06576 4.49908 5.13088 4.51206 5.19163 4.53727C5.25237 4.56247 5.30755 4.59941 5.35399 4.64598L7.99999 7.29298L10.646 4.64598C10.6925 4.59949 10.7477 4.56261 10.8084 4.53745C10.8691 4.5123 10.9342 4.49935 11 4.49935C11.0657 4.49935 11.1308 4.5123 11.1916 4.53745C11.2523 4.56261 11.3075 4.59949 11.354 4.64598C11.4005 4.69247 11.4374 4.74766 11.4625 4.80839C11.4877 4.86913 11.5006 4.93423 11.5006 4.99998C11.5006 5.06572 11.4877 5.13082 11.4625 5.19156C11.4374 5.2523 11.4005 5.30749 11.354 5.35398L8.70699 7.99998L11.354 10.646C11.4005 10.6925 11.4374 10.7477 11.4625 10.8084C11.4877 10.8691 11.5006 10.9342 11.5006 11C11.5006 11.0657 11.4877 11.1308 11.4625 11.1916C11.4374 11.2523 11.4005 11.3075 11.354 11.354C11.3075 11.4005 11.2523 11.4373 11.1916 11.4625C11.1308 11.4877 11.0657 11.5006 11 11.5006C10.9342 11.5006 10.8691 11.4877 10.8084 11.4625C10.7477 11.4373 10.6925 11.4005 10.646 11.354L7.99999 8.70698L5.35399 11.354C5.30751 11.4005 5.25232 11.4373 5.19158 11.4625C5.13084 11.4877 5.06574 11.5006 4.99999 11.5006C4.93425 11.5006 4.86915 11.4877 4.80841 11.4625C4.74767 11.4373 4.69248 11.4005 4.64599 11.354C4.59951 11.3075 4.56263 11.2523 4.53747 11.1916C4.51231 11.1308 4.49936 11.0657 4.49936 11C4.49936 10.9342 4.51231 10.8691 4.53747 10.8084C4.56263 10.7477 4.59951 10.6925 4.64599 10.646L7.29299 7.99998L4.64599 5.35398C4.59943 5.30753 4.56249 5.25236 4.53728 5.19161C4.51207 5.13087 4.4991 5.06575 4.4991 4.99998C4.4991 4.93421 4.51207 4.86909 4.53728 4.80834C4.56249 4.7476 4.59943 4.69242 4.64599 4.64598Z" fill="black"/>
</g>
<defs>
<clipPath id="clip0_73_2">
<rect width="16" height="16" fill="white"/>
</clipPath>
</defs>
</svg>
