<svg width="135" height="135" viewBox="0 0 135 135" fill="none" xmlns="http://www.w3.org/2000/svg">
<circle cx="67.5" cy="67.5" r="67.5" fill="#D9D9D9"/>
<g clip-path="url(#clip0_81_18)">
<path d="M62.006 59.5C62.006 60.6935 61.5319 61.8381 60.688 62.682C59.844 63.5259 58.6995 64 57.506 64C56.3125 64 55.1679 63.5259 54.324 62.682C53.4801 61.8381 53.006 60.6935 53.006 59.5C53.006 58.3065 53.4801 57.1619 54.324 56.318C55.1679 55.4741 56.3125 55 57.506 55C58.6995 55 59.844 55.4741 60.688 56.318C61.5319 57.1619 62.006 58.3065 62.006 59.5V59.5Z" fill="#F5F5F5"/>
<path d="M48.5 49C47.3065 49 46.1619 49.4741 45.318 50.318C44.4741 51.1619 44 52.3065 44 53.5V80.5C44 81.6935 44.4741 82.8381 45.318 83.682C46.1619 84.5259 47.3065 85 48.5 85H87.5C88.6935 85 89.8381 84.5259 90.682 83.682C91.5259 82.8381 92 81.6935 92 80.5V53.5C92 52.3065 91.5259 51.1619 90.682 50.318C89.8381 49.4741 88.6935 49 87.5 49H48.5ZM87.5 52C87.8978 52 88.2794 52.158 88.5607 52.4393C88.842 52.7206 89 53.1022 89 53.5V71.5L77.675 65.659C77.3937 65.5181 77.0751 65.4692 76.7645 65.5193C76.4538 65.5693 76.1668 65.7158 75.944 65.938L64.814 77.068L56.834 71.752C56.5459 71.5602 56.2003 71.4739 55.8558 71.5078C55.5113 71.5417 55.1892 71.6937 54.944 71.938L47.006 79V80.62C47.0024 80.5801 47.0004 80.5401 47 80.5V53.5C47 53.1022 47.158 52.7206 47.4393 52.4393C47.7206 52.158 48.1022 52 48.5 52H87.5Z" fill="#F5F5F5"/>
</g>
<defs>
<clipPath id="clip0_81_18">
<rect width="48" height="48" fill="white" transform="translate(44 43)"/>
</clipPath>
</defs>
</svg>
