<svg width="16" height="16" viewBox="0 0 16 16" fill="none" xmlns="http://www.w3.org/2000/svg">
<path d="M7.99998 1.33334C8.87546 1.33334 9.74237 1.50578 10.5512 1.84081C11.36 2.17584 12.095 2.66691 12.714 3.28597C13.3331 3.90502 13.8241 4.63995 14.1592 5.44879C14.4942 6.25762 14.6666 7.12453 14.6666 8.00001C14.6666 9.76812 13.9643 11.4638 12.714 12.7141C11.4638 13.9643 9.76809 14.6667 7.99998 14.6667C7.1245 14.6667 6.25759 14.4942 5.44876 14.1592C4.63992 13.8242 3.90499 13.3331 3.28593 12.7141C2.03569 11.4638 1.33331 9.76812 1.33331 8.00001C1.33331 6.2319 2.03569 4.53621 3.28593 3.28597C4.53618 2.03572 6.23187 1.33334 7.99998 1.33334M9.33331 4.66668H6.66665V6.00001H7.33331V10H6.66665V11.3333H9.33331V10H8.66665V6.00001H9.33331V4.66668Z" fill="#108C2C"/>
</svg>
