<svg width="16" height="16" viewBox="0 0 16 16" fill="none" xmlns="http://www.w3.org/2000/svg">
<g clip-path="url(#clip0_22_540)">
<path d="M8 9.53674e-07C9.05058 9.53674e-07 10.0909 0.206927 11.0615 0.608965C12.0321 1.011 12.914 1.60028 13.6569 2.34315C14.3997 3.08602 14.989 3.96793 15.391 4.93853C15.7931 5.90914 16 6.94943 16 8C16 10.1217 15.1571 12.1566 13.6569 13.6569C12.1566 15.1571 10.1217 16 8 16C6.94943 16 5.90914 15.7931 4.93853 15.391C3.96793 14.989 3.08601 14.3997 2.34315 13.6569C0.842855 12.1566 0 10.1217 0 8C0 5.87827 0.842855 3.84344 2.34315 2.34315C3.84344 0.842856 5.87827 9.53674e-07 8 9.53674e-07M9.6 4H6.4V5.6H7.2V10.4H6.4V12H9.6V10.4H8.8V5.6H9.6V4Z" fill="black"/>
</g>
<defs>
<clipPath id="clip0_22_540">
<rect width="16" height="16" fill="white"/>
</clipPath>
</defs>
</svg>
